<?xml version="1.0" standalone="no"?>
<!DOCTYPE svg PUBLIC "-//W3C//DTD SVG 20010904//EN"
 "http://www.w3.org/TR/2001/REC-SVG-20010904/DTD/svg10.dtd">
<svg version="1.0" xmlns="http://www.w3.org/2000/svg"
 width="900.000000pt" height="900.000000pt" viewBox="0 0 900.000000 900.000000"
 preserveAspectRatio="xMidYMid meet">
<metadata>
Created by potrace 1.10, written by Peter Selinger 2001-2011
</metadata>
<g transform="translate(0.000000,900.000000) scale(0.100000,-0.100000)"
fill="#000000" stroke="none">
<path d="M4143 8988 c3 -16 -37 -26 -113 -27 -68 -1 -243 -24 -320 -42 -25 -6
-70 -14 -100 -19 -30 -4 -77 -13 -105 -20 -27 -6 -77 -19 -110 -27 -33 -8 -73
-19 -90 -25 -16 -5 -48 -13 -70 -17 -22 -4 -50 -13 -62 -19 -12 -7 -31 -12
-43 -12 -12 0 -34 -6 -48 -14 -15 -7 -54 -23 -87 -34 -33 -11 -76 -26 -95 -33
-19 -6 -47 -18 -62 -25 -14 -8 -31 -14 -37 -14 -10 0 -47 -16 -176 -75 -95
-43 -187 -90 -191 -97 -3 -4 -12 -8 -20 -8 -8 0 -33 -12 -57 -27 -23 -15 -62
-38 -87 -50 -51 -27 -53 -28 -170 -103 -47 -30 -93 -59 -102 -65 -34 -21 -159
-107 -171 -118 -7 -7 -28 -23 -47 -36 -171 -120 -572 -502 -730 -695 -36 -43
-82 -99 -103 -124 -21 -25 -46 -57 -55 -71 -9 -14 -22 -32 -28 -38 -12 -12
-97 -135 -119 -171 -6 -9 -35 -55 -65 -102 -75 -117 -76 -119 -103 -170 -12
-25 -35 -64 -50 -87 -15 -24 -27 -49 -27 -57 0 -8 -4 -17 -8 -20 -7 -4 -54
-96 -97 -191 -59 -129 -75 -166 -75 -176 0 -6 -6 -23 -14 -37 -7 -15 -19 -43
-25 -62 -7 -19 -22 -62 -33 -95 -11 -33 -27 -72 -34 -87 -8 -14 -14 -37 -14
-50 -1 -12 -7 -34 -15 -48 -8 -14 -14 -37 -15 -52 0 -15 -6 -42 -14 -60 -14
-33 -32 -100 -47 -173 -4 -22 -12 -60 -18 -85 -67 -308 -84 -501 -84 -940 0
-437 21 -669 85 -940 6 -25 14 -63 18 -85 12 -65 31 -138 46 -173 8 -18 14
-45 14 -60 1 -15 7 -38 15 -52 8 -14 14 -36 15 -48 0 -13 6 -36 14 -50 7 -15
24 -58 36 -97 13 -38 27 -74 31 -80 5 -5 9 -18 9 -30 0 -11 7 -29 15 -39 8
-11 15 -26 15 -33 0 -11 15 -47 75 -178 43 -95 90 -187 97 -191 4 -3 8 -12 8
-20 0 -8 12 -33 27 -57 15 -23 38 -62 50 -87 27 -51 28 -53 103 -170 30 -47
59 -93 65 -102 22 -36 107 -159 119 -171 6 -6 19 -24 28 -38 9 -14 34 -46 55
-71 21 -25 67 -81 103 -124 158 -193 559 -575 730 -695 19 -13 40 -29 47 -36
12 -11 137 -97 171 -118 9 -6 55 -35 102 -65 117 -75 119 -76 170 -103 25 -12
64 -35 87 -50 24 -15 49 -27 57 -27 8 0 17 -4 20 -8 4 -7 96 -54 191 -97 129
-59 166 -75 176 -75 6 0 23 -6 37 -14 15 -7 43 -19 62 -25 19 -7 62 -22 95
-33 33 -11 72 -27 87 -34 14 -8 37 -14 50 -14 12 -1 34 -7 48 -15 14 -8 37
-14 52 -15 15 0 42 -6 60 -14 35 -15 108 -34 173 -46 22 -4 60 -12 85 -18 271
-64 503 -85 940 -85 437 0 669 21 940 85 25 6 63 14 85 18 65 12 138 31 173
46 18 8 45 14 60 14 15 1 38 7 52 15 14 8 36 14 48 15 13 0 36 6 50 14 15 8
54 22 87 32 33 10 69 24 80 31 11 7 29 13 40 13 11 0 29 7 39 15 11 8 26 15
33 15 11 0 47 15 178 75 95 43 187 90 191 97 3 4 12 8 20 8 8 0 33 12 57 27
23 15 62 38 87 50 51 27 53 28 170 103 47 30 93 59 102 65 34 21 159 107 171
118 7 7 28 23 47 36 171 120 572 502 730 695 36 43 82 99 103 124 21 25 46 57
55 71 9 14 22 32 28 38 12 12 97 135 119 171 6 9 35 55 65 102 75 117 76 119
103 170 12 25 35 64 50 87 15 24 27 49 27 57 0 8 4 17 8 20 7 4 54 96 97 191
59 129 75 166 75 176 0 6 6 23 14 37 7 15 19 43 25 62 7 19 22 62 33 95 11 33
27 72 34 87 8 14 14 37 14 50 1 12 7 34 15 48 8 14 14 37 15 52 0 15 6 42 14
60 14 33 31 98 47 173 8 39 16 78 44 220 24 122 45 278 46 345 1 76 11 116 27
112 9 -1 12 87 12 348 0 261 -3 349 -12 347 -16 -3 -26 37 -27 113 -1 68 -24
243 -42 320 -6 25 -14 70 -19 100 -4 30 -13 78 -20 105 -6 28 -19 77 -27 110
-8 33 -19 74 -25 90 -5 17 -13 48 -17 70 -4 22 -13 50 -19 62 -7 12 -12 31
-12 43 0 12 -6 34 -14 48 -7 15 -23 54 -34 87 -11 33 -26 76 -33 95 -6 19 -18
47 -25 62 -8 14 -14 31 -14 37 0 10 -16 47 -75 176 -43 95 -90 187 -97 191 -4
3 -8 12 -8 20 0 8 -12 33 -27 57 -15 23 -38 62 -50 87 -27 51 -28 53 -103 170
-30 47 -59 93 -65 102 -22 36 -107 159 -119 171 -6 6 -19 24 -28 38 -9 14 -34
46 -55 71 -21 25 -67 81 -103 124 -158 193 -559 575 -730 695 -19 13 -40 29
-47 36 -12 11 -137 97 -171 118 -9 6 -55 35 -102 65 -117 75 -119 76 -170 103
-25 12 -64 35 -87 50 -24 15 -49 27 -57 27 -8 0 -17 4 -20 8 -4 7 -96 54 -191
97 -129 59 -166 75 -176 75 -6 0 -23 6 -37 14 -15 7 -43 19 -62 25 -19 7 -62
22 -95 33 -33 11 -72 27 -87 34 -14 8 -36 14 -48 14 -12 0 -31 5 -43 12 -12 6
-40 15 -62 19 -22 4 -53 11 -70 17 -65 22 -107 33 -152 41 -27 5 -68 13 -93
19 -135 32 -319 60 -466 71 -112 8 -139 15 -129 32 4 5 -131 9 -344 9 -261 0
-350 -3 -348 -12z m748 -279 c30 -6 99 -14 154 -19 55 -4 120 -13 145 -19 25
-5 72 -15 105 -21 118 -21 219 -45 270 -62 17 -6 48 -13 70 -17 23 -4 47 -11
55 -16 7 -4 30 -12 49 -16 43 -9 97 -27 133 -45 14 -8 33 -14 42 -14 8 0 32
-7 53 -16 75 -32 99 -42 143 -59 61 -24 228 -101 270 -124 8 -5 33 -17 55 -27
21 -11 71 -37 110 -60 38 -22 77 -43 85 -47 22 -10 50 -28 91 -59 20 -16 41
-28 47 -28 5 0 37 -20 71 -45 34 -25 63 -45 66 -45 3 0 11 -5 18 -10 7 -6 53
-40 102 -77 307 -228 630 -552 858 -858 37 -49 71 -95 77 -102 5 -7 10 -15 10
-18 0 -3 20 -32 45 -66 25 -34 45 -66 45 -71 0 -6 13 -27 28 -47 16 -20 32
-43 35 -51 4 -8 11 -22 17 -30 20 -31 96 -168 114 -205 30 -66 32 -69 53 -110
28 -54 76 -160 98 -215 17 -44 27 -68 59 -143 9 -21 16 -45 16 -53 0 -9 6 -28
14 -42 18 -36 36 -90 45 -133 4 -19 12 -42 16 -49 5 -8 12 -32 16 -55 4 -22
11 -53 17 -70 19 -55 45 -171 62 -275 6 -36 16 -83 21 -105 6 -22 15 -85 19
-140 5 -55 13 -124 19 -154 15 -72 15 -730 0 -802 -6 -30 -14 -99 -19 -154 -4
-55 -13 -118 -19 -140 -5 -22 -15 -69 -21 -105 -17 -104 -43 -220 -62 -275 -6
-16 -13 -48 -17 -70 -4 -23 -11 -47 -16 -55 -4 -7 -12 -30 -16 -49 -9 -43 -27
-97 -45 -133 -8 -14 -14 -33 -14 -42 0 -8 -7 -32 -16 -53 -32 -75 -42 -99 -59
-143 -27 -68 -72 -168 -112 -245 -11 -22 -29 -58 -39 -80 -11 -21 -37 -71 -60
-110 -22 -38 -43 -77 -47 -85 -10 -22 -28 -50 -59 -91 -16 -20 -28 -41 -28
-47 0 -5 -20 -37 -45 -71 -25 -34 -45 -63 -45 -66 0 -3 -5 -11 -10 -18 -6 -7
-40 -52 -77 -102 -228 -307 -552 -630 -858 -858 -49 -37 -95 -71 -102 -77 -7
-5 -15 -10 -18 -10 -3 0 -32 -20 -66 -45 -34 -25 -66 -45 -71 -45 -6 0 -27
-13 -47 -28 -20 -16 -43 -32 -51 -35 -8 -4 -22 -11 -30 -17 -31 -20 -168 -96
-205 -114 -66 -30 -69 -32 -110 -53 -54 -28 -160 -76 -215 -98 -44 -17 -68
-27 -143 -59 -21 -9 -45 -16 -53 -16 -9 0 -28 -6 -42 -14 -36 -18 -90 -36
-133 -45 -19 -4 -42 -12 -49 -16 -8 -5 -32 -12 -55 -16 -22 -4 -53 -11 -70
-17 -55 -19 -171 -45 -275 -62 -36 -6 -83 -16 -105 -21 -22 -6 -87 -15 -145
-19 -58 -5 -125 -13 -150 -19 -61 -14 -730 -14 -801 0 -30 6 -99 14 -154 19
-55 4 -118 13 -140 19 -22 5 -69 15 -105 21 -104 17 -220 43 -275 62 -16 6
-48 13 -70 17 -23 4 -47 11 -55 16 -7 4 -30 12 -49 16 -43 9 -97 27 -133 45
-14 8 -33 14 -42 14 -8 0 -32 7 -53 16 -75 32 -99 42 -143 59 -68 27 -168 72
-245 112 -22 11 -58 29 -80 39 -21 11 -71 37 -110 60 -38 22 -77 43 -85 47
-22 10 -50 28 -91 60 -20 15 -41 27 -47 27 -5 0 -37 20 -71 45 -34 25 -63 45
-66 45 -3 0 -11 5 -18 10 -7 6 -52 40 -102 77 -306 228 -630 551 -858 858 -37
50 -71 95 -77 102 -5 7 -10 15 -10 18 0 3 -20 32 -45 66 -25 34 -45 66 -45 71
0 6 -13 27 -28 47 -16 20 -32 43 -35 51 -4 8 -11 22 -17 30 -20 31 -96 168
-114 205 -10 22 -22 47 -27 55 -23 42 -100 209 -124 270 -17 44 -27 68 -59
143 -9 21 -16 45 -16 53 0 9 -6 28 -14 42 -18 36 -36 90 -45 133 -4 19 -12 42
-16 49 -5 8 -12 32 -16 55 -4 22 -11 54 -17 70 -19 55 -45 171 -62 275 -6 36
-16 83 -21 105 -6 22 -15 85 -19 140 -5 55 -13 124 -19 154 -15 72 -15 730 0
802 6 30 14 99 19 154 4 55 13 118 19 140 5 22 15 69 21 105 17 104 43 220 62
275 6 17 13 48 17 70 4 23 11 47 16 55 4 7 12 30 16 49 9 43 27 97 45 133 8
14 14 33 14 42 0 8 7 32 16 53 32 75 42 99 59 143 24 61 101 228 124 270 5 8
17 33 27 55 11 21 37 71 60 110 22 38 43 77 47 85 10 22 28 50 60 91 15 20 27
41 27 47 0 5 20 37 45 71 25 34 45 63 45 66 0 3 5 11 10 18 6 7 40 53 77 102
228 306 551 630 858 858 50 37 95 71 102 77 7 5 15 10 18 10 3 0 32 20 66 45
34 25 66 45 71 45 6 0 27 13 47 28 20 16 43 32 51 35 8 4 22 11 30 17 31 20
168 96 205 114 66 30 69 32 110 53 54 28 160 76 215 98 44 17 68 27 143 59 21
9 45 16 53 16 9 0 28 6 42 14 36 18 90 36 133 45 19 4 42 12 49 16 8 5 32 12
55 16 22 4 54 11 70 17 55 19 171 45 275 62 36 6 83 16 105 21 22 6 85 15 140
19 55 5 120 13 145 18 64 14 744 15 811 1z"/>
<path d="M4087 8439 c-21 -5 -79 -13 -130 -19 -127 -14 -214 -28 -268 -46 -26
-7 -58 -14 -72 -14 -14 0 -38 -5 -54 -11 -15 -7 -48 -15 -73 -20 -58 -10 -118
-28 -250 -74 -19 -7 -60 -20 -90 -30 -54 -16 -97 -34 -153 -61 -16 -8 -33 -14
-38 -14 -34 0 -450 -213 -553 -284 -35 -24 -68 -45 -72 -47 -5 -2 -49 -31 -98
-64 -48 -33 -100 -68 -114 -77 -13 -9 -28 -20 -31 -25 -3 -5 -42 -36 -86 -70
-44 -33 -97 -78 -118 -99 -37 -37 -38 -40 -35 -103 3 -64 4 -66 48 -99 36 -28
50 -33 78 -28 30 4 167 96 197 130 31 36 334 247 445 309 104 59 284 151 335
172 17 7 60 26 97 44 37 17 74 31 81 31 7 0 22 7 33 15 10 8 27 15 36 15 10 0
32 6 50 14 18 8 62 23 98 35 36 11 79 24 95 30 63 20 141 40 170 44 33 5 101
21 181 43 28 8 73 14 101 14 27 0 72 6 99 14 82 23 546 42 700 28 71 -7 154
-12 184 -12 30 0 88 -6 130 -14 41 -8 104 -20 140 -26 36 -6 83 -14 105 -19
22 -5 67 -15 100 -21 33 -7 76 -18 95 -25 19 -7 55 -18 80 -24 101 -27 160
-46 202 -67 14 -8 34 -14 45 -14 10 0 27 -7 37 -15 11 -8 28 -15 37 -15 10 0
30 -6 46 -14 15 -8 60 -29 98 -46 69 -31 196 -93 225 -110 8 -5 22 -11 30 -14
8 -4 27 -14 42 -24 14 -9 71 -44 125 -76 102 -62 206 -132 258 -173 17 -13 75
-59 130 -102 208 -162 414 -368 576 -576 43 -55 89 -113 102 -130 42 -52 112
-157 173 -258 32 -54 67 -110 76 -125 10 -15 20 -34 24 -42 3 -8 9 -22 14 -30
17 -29 79 -156 110 -225 17 -38 38 -83 46 -98 8 -16 14 -36 14 -46 0 -9 7 -26
15 -37 8 -10 15 -27 15 -37 0 -11 6 -31 14 -45 21 -42 40 -101 67 -202 6 -25
17 -61 24 -80 7 -19 18 -62 25 -95 6 -33 16 -78 21 -100 9 -45 23 -119 44
-245 40 -242 40 -798 0 -1040 -21 -126 -35 -200 -44 -245 -5 -22 -15 -67 -21
-100 -7 -33 -18 -76 -25 -95 -7 -19 -18 -55 -24 -80 -27 -101 -46 -160 -67
-202 -8 -14 -14 -34 -14 -45 0 -10 -7 -27 -15 -37 -8 -11 -15 -28 -15 -37 0
-10 -6 -30 -14 -46 -8 -15 -29 -59 -46 -98 -31 -69 -93 -196 -110 -225 -5 -8
-11 -22 -14 -30 -4 -8 -14 -27 -24 -42 -9 -15 -37 -60 -61 -100 -69 -115 -168
-263 -191 -283 -11 -10 -20 -22 -20 -27 0 -5 -36 -53 -80 -108 -181 -222 -373
-414 -575 -571 -55 -43 -113 -89 -130 -102 -52 -42 -157 -112 -258 -173 -54
-32 -110 -67 -125 -76 -15 -10 -34 -20 -42 -24 -8 -3 -22 -9 -30 -14 -29 -17
-156 -79 -225 -110 -38 -17 -83 -38 -98 -46 -16 -8 -36 -14 -46 -14 -9 0 -26
-7 -37 -15 -10 -8 -27 -15 -37 -15 -11 0 -31 -6 -45 -14 -42 -21 -101 -40
-202 -67 -25 -6 -61 -17 -80 -24 -19 -7 -62 -18 -95 -25 -33 -6 -78 -16 -100
-21 -45 -9 -119 -23 -245 -44 -242 -40 -798 -40 -1040 0 -126 21 -200 35 -245
44 -22 5 -67 15 -100 21 -33 7 -76 18 -95 25 -19 7 -55 18 -80 24 -101 27
-160 46 -202 67 -14 8 -35 14 -45 14 -11 0 -28 7 -39 15 -10 8 -27 15 -36 15
-9 0 -29 6 -45 14 -15 8 -59 29 -98 46 -69 31 -196 93 -225 110 -8 5 -22 11
-30 14 -8 4 -27 14 -42 24 -14 9 -71 44 -125 76 -102 62 -206 132 -258 173
-16 13 -75 59 -130 102 -208 162 -414 368 -576 576 -43 55 -89 114 -102 130
-41 52 -111 156 -173 258 -32 54 -67 111 -76 125 -10 15 -20 34 -24 42 -3 8
-9 22 -14 30 -17 29 -79 156 -110 225 -17 39 -38 83 -46 98 -8 16 -14 36 -14
46 0 9 -7 26 -15 37 -8 10 -15 27 -15 37 0 11 -6 31 -14 45 -21 42 -40 101
-67 202 -6 25 -17 61 -24 80 -7 19 -18 62 -25 95 -6 33 -16 78 -21 100 -5 22
-13 69 -19 105 -6 36 -18 99 -26 140 -8 42 -14 100 -14 130 0 30 -5 113 -12
184 -13 151 5 613 28 706 8 30 14 74 14 99 0 24 6 67 14 95 22 80 38 148 43
181 4 29 24 107 44 170 6 17 19 59 30 95 12 36 27 80 35 98 8 18 14 40 14 50
0 9 7 26 15 36 8 11 15 26 15 33 0 7 14 44 31 81 18 37 37 81 44 97 21 51 113
231 172 335 62 111 273 414 309 445 34 30 126 167 130 197 5 28 0 42 -28 78
-33 44 -35 45 -99 48 -63 3 -66 2 -103 -35 -21 -21 -66 -74 -99 -118 -34 -44
-65 -83 -70 -86 -5 -3 -16 -18 -25 -31 -9 -14 -44 -66 -77 -114 -33 -49 -62
-93 -64 -98 -2 -4 -23 -37 -47 -72 -71 -103 -284 -519 -284 -553 0 -5 -6 -22
-14 -38 -27 -56 -45 -99 -61 -153 -10 -30 -23 -71 -30 -90 -46 -132 -64 -192
-74 -250 -5 -25 -13 -58 -20 -73 -6 -16 -11 -40 -11 -54 0 -14 -7 -46 -15 -72
-16 -51 -31 -140 -45 -271 -5 -47 -14 -107 -20 -133 -6 -27 -10 -195 -10 -390
0 -347 10 -499 46 -657 8 -36 14 -82 14 -103 0 -21 7 -54 15 -74 8 -19 15 -47
15 -62 0 -14 6 -46 14 -71 8 -25 22 -72 31 -105 9 -33 21 -73 27 -90 5 -16 14
-46 18 -65 4 -19 18 -60 30 -90 37 -97 51 -135 57 -155 3 -11 19 -49 35 -85
17 -36 36 -78 43 -95 23 -53 112 -229 134 -265 11 -19 25 -44 30 -55 5 -11 21
-37 35 -58 14 -21 26 -41 26 -45 0 -4 27 -47 60 -95 33 -49 60 -91 60 -93 0
-8 122 -166 198 -258 41 -49 80 -96 87 -105 17 -21 337 -341 363 -362 11 -9
59 -50 108 -91 92 -76 250 -198 258 -198 2 0 44 -27 93 -60 48 -33 91 -60 95
-60 4 0 24 -12 45 -26 21 -14 47 -30 58 -35 11 -5 36 -19 55 -30 36 -22 212
-111 265 -134 17 -7 59 -26 95 -43 36 -16 74 -32 85 -35 11 -3 45 -15 75 -27
119 -46 136 -52 170 -60 19 -4 49 -13 65 -18 17 -6 57 -18 90 -27 33 -9 80
-23 105 -31 25 -8 57 -14 71 -14 15 0 43 -7 62 -15 20 -8 53 -15 74 -15 21 0
67 -6 103 -15 150 -33 320 -45 650 -45 330 0 500 12 650 45 36 9 82 15 103 15
21 0 54 7 74 15 19 8 47 15 62 15 14 0 46 6 71 14 25 8 72 22 105 31 33 9 74
21 90 27 17 5 46 14 65 18 19 4 60 18 90 30 96 37 134 51 155 57 11 3 62 25
112 49 51 24 96 44 101 44 9 0 180 87 232 119 19 11 44 25 55 30 11 5 37 21
58 35 21 14 41 26 45 26 4 0 47 27 95 60 49 33 91 60 93 60 8 0 166 122 258
198 49 41 97 81 107 89 23 19 343 339 362 362 8 10 48 58 89 107 76 92 198
250 198 258 0 2 27 44 60 93 33 48 60 91 60 95 0 4 12 24 26 45 14 21 30 47
35 58 5 11 19 36 30 55 23 37 112 214 134 265 7 17 25 55 40 85 15 30 31 69
35 85 5 17 18 55 30 85 45 118 52 136 60 170 4 19 13 49 18 65 6 17 18 57 27
90 9 33 23 80 31 105 8 25 14 57 14 71 0 15 7 43 15 62 8 20 15 53 15 74 0 21
6 67 15 103 33 150 45 320 45 650 0 330 -12 500 -45 650 -9 36 -15 82 -15 103
0 21 -7 54 -15 74 -8 19 -15 47 -15 62 0 14 -6 46 -14 71 -8 25 -22 72 -31
105 -9 33 -21 74 -27 90 -5 17 -14 46 -18 65 -8 34 -14 51 -60 170 -12 30 -24
64 -27 75 -3 11 -19 49 -35 85 -17 36 -36 79 -43 95 -23 53 -112 229 -134 265
-11 19 -25 44 -30 55 -5 11 -21 37 -35 58 -14 21 -26 41 -26 45 0 4 -27 47
-60 95 -33 49 -60 91 -60 93 0 8 -122 166 -198 258 -41 49 -82 97 -91 108 -21
26 -333 338 -359 359 -11 9 -59 50 -108 91 -92 76 -250 198 -258 198 -2 0 -44
27 -93 60 -48 33 -91 60 -95 60 -4 0 -24 12 -45 26 -21 14 -47 30 -58 35 -11
5 -36 19 -55 30 -52 32 -223 119 -232 119 -5 0 -50 20 -101 44 -50 24 -101 46
-112 49 -11 3 -45 15 -75 27 -119 46 -136 52 -170 60 -19 4 -48 13 -65 18 -16
6 -57 18 -90 27 -33 9 -80 23 -105 31 -25 8 -57 14 -71 14 -15 0 -43 7 -62 15
-20 8 -53 15 -74 15 -21 0 -67 6 -103 15 -156 35 -318 45 -670 44 -190 0 -362
-5 -383 -10z"/>
<path d="M3515 6986 c-33 -7 -69 -17 -80 -23 -11 -6 -27 -14 -35 -18 -61 -25
-131 -89 -184 -170 -25 -39 -46 -77 -46 -86 0 -9 -7 -33 -15 -52 -13 -32 -15
-293 -15 -2147 0 -1854 2 -2115 15 -2147 8 -19 15 -43 15 -52 0 -9 20 -48 45
-86 53 -80 123 -145 185 -170 8 -4 26 -12 40 -20 51 -27 174 -39 258 -25 42 6
88 18 102 25 14 8 32 16 40 20 62 25 132 90 185 170 25 38 45 77 45 86 0 9 7
33 15 52 13 31 15 159 15 935 0 494 3 902 6 905 4 4 33 -17 64 -46 186 -170
454 -170 640 0 31 29 60 50 64 46 3 -3 6 -411 6 -905 0 -776 2 -904 15 -935 8
-19 15 -43 15 -52 0 -9 20 -48 45 -86 53 -80 123 -145 185 -170 8 -4 26 -12
40 -20 14 -7 60 -19 102 -25 84 -14 207 -2 258 25 14 8 32 16 40 20 62 25 132
90 185 170 25 38 45 77 45 86 0 9 7 33 15 52 13 32 15 293 15 2147 0 1854 -2
2115 -15 2147 -8 19 -15 43 -15 52 0 9 -21 47 -46 86 -53 81 -122 145 -184
170 -8 4 -26 13 -40 20 -14 7 -62 19 -107 26 -199 30 -381 -56 -486 -228 -20
-33 -37 -65 -37 -71 0 -6 -7 -23 -15 -39 -26 -51 -75 -163 -75 -172 0 -5 -6
-22 -14 -38 -8 -15 -21 -44 -29 -63 -9 -19 -29 -64 -46 -100 -17 -36 -31 -71
-31 -77 0 -6 -6 -24 -14 -40 -37 -74 -76 -164 -76 -176 0 -7 -4 -17 -9 -22 -5
-6 -19 -35 -31 -65 -50 -120 -65 -150 -80 -150 -15 0 -30 30 -80 150 -12 30
-26 59 -31 65 -5 5 -9 15 -9 22 0 12 -39 102 -76 176 -8 16 -14 34 -14 40 0 6
-14 41 -31 77 -17 36 -37 81 -46 100 -8 19 -21 48 -29 63 -8 16 -14 33 -14 38
0 9 -49 121 -75 172 -8 16 -15 33 -15 39 0 6 -17 38 -37 71 -111 182 -305 266
-518 223z m194 -266 c51 -25 112 -96 134 -157 11 -26 26 -64 35 -83 8 -19 21
-48 28 -65 7 -16 27 -60 43 -98 17 -37 31 -71 31 -76 0 -5 7 -22 15 -38 26
-51 75 -163 75 -172 0 -5 7 -22 15 -38 26 -51 75 -163 75 -172 0 -5 6 -22 14
-38 8 -15 21 -44 30 -63 8 -19 29 -65 45 -103 17 -37 31 -71 31 -76 0 -5 7
-22 15 -38 24 -47 75 -163 75 -171 0 -17 52 -61 81 -67 55 -12 113 3 137 35
12 16 22 32 22 35 0 6 54 127 75 168 8 16 15 33 15 38 0 5 14 39 31 76 16 38
37 84 45 103 9 19 22 48 30 63 8 16 14 33 14 38 0 9 49 121 75 172 8 16 15 33
15 38 0 5 14 39 31 76 16 38 36 82 43 98 7 17 20 47 29 68 9 20 23 52 30 70
23 53 43 100 59 137 9 19 24 57 35 83 22 61 83 132 134 157 50 26 128 26 179
0 53 -27 113 -101 124 -153 15 -68 20 -4014 5 -4112 -10 -67 -17 -87 -46 -123
-55 -67 -101 -92 -173 -92 -112 0 -198 82 -218 208 -9 53 -12 386 -12 1232 0
706 -4 1168 -9 1184 -12 30 -77 76 -109 76 -48 0 -131 -62 -132 -98 0 -8 -6
-26 -13 -40 -13 -25 -22 -46 -61 -134 -8 -18 -24 -58 -36 -88 -12 -30 -33 -77
-45 -105 -13 -27 -26 -57 -30 -65 -17 -42 -63 -100 -79 -100 -5 0 -17 -7 -27
-16 -25 -22 -173 -22 -198 0 -10 9 -22 16 -27 16 -16 0 -62 58 -79 100 -4 8
-17 38 -30 65 -12 28 -33 75 -45 105 -35 88 -61 148 -110 252 -26 54 -39 71
-73 88 -50 27 -89 21 -137 -19 l-35 -29 -6 -1208 c-3 -665 -10 -1227 -14
-1249 -9 -48 -62 -117 -116 -151 -30 -19 -52 -24 -99 -24 -72 0 -118 25 -173
92 -29 36 -36 56 -46 123 -15 98 -10 4044 5 4112 11 51 71 125 122 153 49 26
131 26 181 0z"/>
</g>
</svg>
